<svg width="197" height="197" viewBox="0 0 197 197" fill="none" xmlns="http://www.w3.org/2000/svg">
<path id="Vector" d="M196.85 91.9171V91.6779C196.85 91.2295 196.701 88.5239 196.147 84.518C196.147 84.1593 196.058 83.8155 195.998 83.4567C195.938 83.098 195.848 82.4254 195.759 81.962C193.733 69.2458 189.214 57.0545 182.463 46.0878V46.0131C181.73 44.8322 180.967 43.6812 180.204 42.5303C176.492 37.0418 172.233 31.9435 167.491 27.3136C165.174 25.0244 162.732 22.8637 160.178 20.8413C158.577 19.5558 156.932 18.3451 155.242 17.1642L155.003 16.9699L154.779 16.8354L153.911 16.2375C152.834 15.4901 151.653 14.7427 150.381 13.9355L150.247 13.8459L148.317 12.6949L147.405 12.1867L146.642 11.7532L146.029 11.4094C142.122 9.28004 138.08 7.40762 133.93 5.80406L131.522 4.90724L130.774 4.65311L130.041 4.38407H129.921H129.757L128.545 3.99542H128.366H128.201L127.364 3.74129L126.257 3.41249L125.3 3.14339L124.761 2.99391H124.612H124.417L124.103 2.91919L123.041 2.63518L122.159 2.41098L121.306 2.20169L120.768 2.06717L119.751 1.84296L119.018 1.67856L118.046 1.48424H117.867L117.119 1.34971L116.685 1.26003L116.147 1.17035H116.057H115.877H115.563L114.771 1.03578L114.262 0.946099L113.38 0.811576L112.617 0.692016H112.153L111.465 0.602334L110.807 0.512652L109.715 0.378084L108.698 0.273486H108.369H108.295L107.367 0.183804L105.976 0.0791598L105.034 0.00439453H103.972H102.865H102.192H101.579H100.577C98.6029 0.00439453 96.6287 0.00439453 94.5946 0.00439453H93.3233L92.0071 0.0791598H91.2295L89.33 0.243561H88.6719L86.0546 0.542531L84.8431 0.706932H84.5889L82.7344 0.99094L81.3285 1.23011L78.8457 1.70844C76.004 2.2914 73.1923 3.0089 70.4104 3.83102C68.7353 4.30934 67.2696 4.78766 65.4449 5.4603C57.8031 8.19662 50.529 11.8667 43.7882 16.387L41.7842 17.7621L41.515 17.9564C40.3633 18.7786 39.2266 19.6156 38.1049 20.4976L37.8357 20.7068L37.731 20.7816V20.8563C37.68 20.8825 37.6344 20.918 37.5964 20.9609C37.556 20.977 37.5201 21.0026 37.4917 21.0356L36.5645 21.7681L34.7847 23.2629L33.8125 24.0999C33.1544 24.6829 32.5262 25.2359 31.9429 25.774L31.8532 25.8488V25.9235L31.4494 26.3121C28.4581 29.1522 26.5288 31.2299 26.4241 31.3644C25.4818 32.3809 24.5396 33.4571 23.6273 34.5483C22.9692 35.3255 22.2962 36.1178 21.6082 36.9847L21.4586 37.1641L21.3539 37.2986C19.9929 39.0176 18.5571 40.9608 16.9717 43.2776L16.897 43.3673C16.1791 44.4436 15.4014 45.6543 14.6984 46.9099C13.9955 48.1655 13.4271 49.0623 12.8588 49.9891L11.0341 53.6214C10.4209 54.7873 9.83762 55.9383 9.32911 56.9846C8.19345 59.4182 7.19481 61.9133 6.33786 64.4584C5.48535 66.9098 4.66272 69.5106 3.95978 72.0368V72.1264C3.95978 72.1264 3.95978 72.2012 3.95978 72.2311C3.13197 75.1081 2.48265 78.0334 2.01549 80.9904C1.04769 86.2271 0.547187 91.5395 0.519861 96.8647C0.391608 112.475 3.98015 127.891 10.9892 141.842C11.9276 143.829 12.9711 145.765 14.1151 147.642C15.4612 149.934 16.9269 152.186 18.5123 154.398L19.0656 155.22C20.8166 157.792 22.751 160.235 24.8537 162.529C26.2596 164.024 28.0992 166.117 29.5798 167.582C31.0605 169.047 33.0049 170.915 34.6052 172.26C36.3551 173.755 37.0879 174.383 38.7182 175.609C40.7223 177.193 42.7413 178.598 44.8053 180.003L46.8094 181.289C47.6021 181.782 48.3948 182.245 49.0828 182.649L50.5784 183.486L50.8476 183.635L52.9864 184.786L53.5248 185.055C56.3621 186.541 59.2723 187.883 62.2443 189.076L65.1308 190.197L66.1329 190.571L67.8828 191.169C68.2418 191.303 68.7204 191.453 69.0943 191.573L69.528 191.707H69.6177L70.2758 191.901L71.3676 192.245L72.4594 192.544H72.5492C76.54 193.676 80.6022 194.54 84.7086 195.13H85.0825L86.1743 195.28H86.279L87.2362 195.414L89.3898 195.638C90.3769 195.743 91.6782 195.833 92.6504 195.907C93.6225 195.982 94.6545 196.027 95.6416 196.057H97.1372C98.4982 196.057 100.308 196.057 101.624 196.057C102.94 196.057 104.87 195.877 106.246 195.818C109.237 195.534 113.125 195.055 116.057 194.577C118.576 194.15 121.072 193.596 123.535 192.918L125.3 192.41L130.385 190.915L132.165 190.242C133.66 189.734 134.991 189.211 136.382 188.643L137.085 188.374C138.73 187.746 140.705 186.789 142.484 185.892L144.758 184.742C146.938 183.631 149.06 182.409 151.114 181.079L151.309 180.945C152.984 179.884 154.644 178.762 156.259 177.582L157.306 176.864L159.071 175.459C159.55 175.085 160.028 174.712 160.567 174.323L163.259 172.186C165.221 170.56 167.084 168.818 168.837 166.969L168.972 166.849L169.241 166.55C170.647 165.056 172.232 163.366 174.102 161.229L174.237 161.094C177.259 157.582 179.995 153.833 182.418 149.884V149.749C183.18 148.524 183.913 147.223 184.721 145.848C185.05 145.265 185.379 144.667 185.693 144.054C186.157 143.202 186.59 142.38 186.949 141.618L187.308 140.87C187.937 139.555 188.565 138.195 189.178 136.79C190.03 134.861 190.838 132.903 191.406 131.184C192.501 128.179 193.445 125.121 194.233 122.021C194.757 120.048 195.22 118.075 195.519 116.252C195.818 114.428 196.222 112.201 196.492 110.108C196.566 109.63 196.611 109.167 196.671 108.703C196.99 105.863 197.18 102.933 197.239 99.914C197.239 99.8094 197.239 99.7047 197.239 99.6001V99.3909C197.03 96.8348 197 94.3984 196.85 91.9171Z" fill="url(#paint0_radial_75_2304)"/>
<defs>
<radialGradient id="paint0_radial_75_2304" cx="0" cy="0" r="1" gradientUnits="userSpaceOnUse" gradientTransform="translate(89.1225 115.424) rotate(-0.359791) scale(118.528 118.46)">
<stop offset="0.71" stop-color="#90B3E8"/>
<stop offset="0.76" stop-color="#9BBBEB"/>
<stop offset="0.86" stop-color="#B7CFF1"/>
<stop offset="0.98" stop-color="#E4F0FC"/>
<stop offset="1" stop-color="#ECF5FE"/>
</radialGradient>
</defs>
</svg>
