<svg width="446" height="343" viewBox="0 0 446 343" fill="none" xmlns="http://www.w3.org/2000/svg">
<path d="M86.1848 112.258L86.4817 111.665C87.0756 110.571 87.6924 109.385 88.3548 108.405L88.9259 107.515C89.4284 106.717 89.9538 105.919 90.502 105.235L91.233 104.209L93.0604 101.815C93.266 101.587 93.4487 101.313 93.6543 101.085C94.4766 100.082 95.3218 99.1238 96.2127 98.1433L96.7837 97.5732C97.4918 96.798 98.2456 96.0455 99.068 95.293L100.05 94.358L102.152 92.4654L103.18 91.5761C104.025 90.8692 104.893 90.1851 105.761 89.501L106.469 88.9538L108.205 87.6996L109.53 86.7419C110.147 86.3087 110.786 85.8982 111.426 85.4877C112.065 85.0773 112.294 84.8948 112.751 84.6212L115.035 83.2531L116.131 82.5918C117.296 81.9305 118.416 81.2692 119.695 80.6535L131.824 45.9248C130.613 46.5633 129.426 47.2018 128.261 47.8631L127.164 48.5472C126.388 49.0032 125.634 49.4364 124.88 49.9153C124.126 50.3942 123.989 50.4854 123.555 50.7818C123.121 51.0783 122.276 51.6028 121.659 52.036C121.043 52.4693 120.768 52.6517 120.334 52.9709L118.598 54.2251H118.461C118.256 54.3619 118.096 54.5215 117.89 54.6811C117.022 55.3424 116.154 56.0493 115.309 56.7561L114.258 57.6455C113.55 58.2612 112.842 58.8996 112.18 59.5381L111.197 60.4503C110.444 61.2028 109.69 61.9552 108.913 62.7305L108.342 63.3234C107.451 64.2811 106.606 65.2616 105.784 66.2421L105.624 66.4246C105.487 66.607 105.35 66.8122 105.19 66.9947C104.573 67.77 103.956 68.568 103.362 69.3889C103.111 69.7082 102.883 70.0502 102.631 70.3923C102.083 71.1828 101.558 71.9428 101.055 72.6725L100.484 73.5391C99.8218 74.6108 99.1822 75.7053 98.6111 76.8227C98.4969 77.0051 98.4056 77.2103 98.3142 77.3927C97.8345 78.3277 97.3776 79.2625 96.9436 80.2203L96.7152 80.6535C96.6567 80.8321 96.588 81.0072 96.5096 81.178C95.9157 82.5462 95.3447 83.9371 94.865 85.3737L82.7356 120.08C83.2153 118.666 83.7863 117.275 84.4031 115.884L84.8143 114.926C85.2559 114.09 85.7128 113.201 86.1848 112.258Z" fill="url(#paint0_linear_75_2283)"/>
<path d="M96.1441 98.0521L96.7152 97.482C97.4233 96.7067 98.1771 95.9542 98.9994 95.2017L99.9816 94.2668L102.083 92.3742L103.111 91.4848C103.956 90.778 104.824 90.0939 105.692 89.4098L106.4 88.8625L108.136 87.6083L109.461 86.6507C110.078 86.2174 110.718 85.8069 111.357 85.3965C111.997 84.986 112.225 84.8036 112.682 84.53L114.966 83.1618L116.063 82.5005C117.228 81.8392 118.347 81.1779 119.626 80.5623L131.756 45.8336C130.545 46.4721 129.357 47.1105 128.192 47.7718L127.096 48.4559C126.319 48.912 125.565 49.3453 124.811 49.8241C124.058 50.303 123.921 50.3942 123.487 50.6906C123.053 50.9871 122.207 51.5115 121.591 51.9448C120.974 52.378 120.7 52.5604 120.266 52.8797L118.53 54.1338H118.393C118.187 54.2706 118.027 54.4303 117.822 54.5899C116.954 55.2512 116.086 55.9581 115.24 56.665L114.19 57.5542C113.482 58.1699 112.773 58.8084 112.111 59.4469L111.129 60.359C110.375 61.1115 109.621 61.864 108.845 62.6393L108.273 63.2322C107.383 64.1899 106.537 65.1704 105.715 66.1509L105.555 66.3333C105.418 66.5158 105.281 66.721 105.121 66.9034C104.504 67.6787 103.888 68.4768 103.294 69.2977L95.0934 99.1466L96.1441 98.0521Z" fill="url(#paint1_linear_75_2283)"/>
<path d="M446.023 285.332C443.739 286.472 441.569 287.612 439.307 288.615L437.571 289.413C434.99 290.576 432.386 291.694 429.713 292.765L429.005 293.016C426.447 294.02 423.843 294.977 421.193 295.867L419.685 296.391C416.944 297.303 414.158 298.147 411.325 298.945L409.612 299.424C406.665 300.222 403.696 300.997 400.703 301.704C397.711 302.411 394.444 303.049 391.269 303.642L388.688 304.098C385.993 304.585 383.274 305.018 380.533 305.398L377.175 305.854C374.343 306.242 371.488 306.561 368.61 306.835L366.325 307.086C362.693 307.428 359.016 307.678 355.292 307.861L352.574 307.975C349.673 308.112 346.772 308.203 343.848 308.249H340.285C337.27 308.249 334.254 308.249 331.148 308.249H328.59C324.752 308.142 320.892 307.96 317.008 307.701L314.176 307.496C311.13 307.298 308.085 307.048 305.039 306.744L301.361 306.356C298.209 306.037 295.079 305.649 291.927 305.239L289.118 304.896L286.673 304.532L279.958 303.506L276.943 303.004L270.387 301.818L267.714 301.316C264.676 300.746 261.661 300.131 258.577 299.469L257.755 299.287L249.463 297.372L246.608 296.665C244.438 296.14 242.313 295.593 240.166 295.023L237.151 294.202C234.867 293.563 232.423 292.902 230.047 292.218L228.037 291.625L224.336 290.485L217.484 288.364C216.09 287.931 214.72 287.452 213.349 286.996C211.27 286.289 209.215 285.605 207.159 284.876C205.697 284.374 204.235 283.827 202.796 283.302C200.809 282.573 198.844 281.866 196.88 281.022L192.448 279.289C190.507 278.536 188.588 277.761 186.669 277.009L181.849 275.002L177.418 273.087C175.727 272.357 174.06 271.604 172.415 270.806L168.029 268.8C166.362 268.024 164.717 267.226 163.05 266.519C161.382 265.812 160.195 265.151 158.778 264.421C157.362 263.692 155.466 262.757 153.821 261.913C152.177 261.069 151.012 260.477 149.618 259.633C148.225 258.789 146.352 257.854 144.707 256.965C143.063 256.076 141.966 255.483 140.618 254.685L135.707 251.857C134.382 251.082 133.058 250.329 131.756 249.577C130.454 248.824 128.489 247.57 126.844 246.567L123.053 244.287C121.385 243.238 119.74 242.143 118.073 241.049C116.885 240.273 115.789 239.498 114.532 238.768C112.659 237.514 110.809 236.214 108.982 234.915C108.068 234.276 107.131 233.66 106.218 232.999C103.499 231.038 100.781 229.054 98.1314 227.002C96.1213 225.474 94.1568 223.946 92.2152 222.441L90.4335 221.005C89.0629 219.91 87.7381 218.725 86.4132 217.699C85.7736 217.174 85.134 216.65 84.5173 216.102C83.1467 214.962 81.8219 213.822 80.497 212.636L79.0351 211.337C77.6189 210.082 76.2483 208.828 74.8778 207.574C74.4437 207.141 73.9641 206.73 73.5301 206.32C71.7483 204.655 69.9894 202.968 68.2991 201.28L67.0884 200.072C65.8093 198.795 64.5301 197.518 63.2966 196.218C62.6798 195.603 62.1088 194.964 61.5377 194.348C60.5098 193.277 59.5047 192.205 58.5225 191.11C57.8829 190.426 57.2662 189.719 56.6494 189.035L53.954 185.98C53.3373 185.25 52.7434 184.52 52.1266 183.7L49.6368 180.69L47.8779 178.409L45.5936 175.399L43.9262 173.119L41.6419 170.041C41.1394 169.334 40.614 168.627 40.1343 167.92L37.85 164.682L36.7536 162.675C35.9541 161.444 35.1775 160.213 34.4694 158.958L33.51 157.453C32.4592 155.72 31.4541 153.987 30.4719 152.254C30.2663 151.912 30.1064 151.57 29.9009 151.206C29.147 149.815 28.3704 148.424 27.6166 147.033C27.2968 146.417 26.9998 145.801 26.68 145.163C26.1318 144.068 25.5608 142.882 25.0354 141.834L24.076 139.736C23.5963 138.687 23.1395 137.661 22.7055 136.634C22.2715 135.608 22.0887 135.175 21.7918 134.354C21.4948 133.533 20.9694 132.325 20.5811 131.321L19.7588 129.041C19.3933 128.038 19.0278 127.035 18.708 126.054C18.3882 125.073 18.2055 124.595 17.9771 123.774C17.7486 122.953 17.3375 121.744 17.0405 120.741L16.4238 118.62C16.1497 117.571 15.8756 116.522 15.6243 115.473C15.4415 114.812 15.2816 114.151 15.1217 113.49C14.8476 112.327 14.6192 111.209 14.3908 110.001C14.3908 109.476 14.1624 108.929 14.071 108.405C13.7512 106.717 13.4771 105.053 13.2487 103.365C13.2487 103.16 13.2487 102.955 13.2487 102.727C13.0659 101.267 12.8832 99.8079 12.7461 98.3713C12.7461 97.7785 12.7461 97.2085 12.7461 96.6384C12.7461 95.5667 12.5862 94.3581 12.5177 93.4004C12.5177 92.7391 12.5177 92.0778 12.5177 91.4393C12.5177 90.436 12.5177 89.4555 12.5177 88.4749C12.5177 87.4944 12.5177 87.1068 12.5177 86.4227C12.5177 85.7386 12.5177 84.5301 12.5177 83.5723L12.6548 81.5201C12.6548 80.5852 12.8147 79.6503 12.906 78.7382C12.9974 77.826 13.0431 77.37 13.1345 76.7087C13.2258 76.0474 13.3857 74.8388 13.5456 73.9267C13.7055 73.0146 13.7283 72.6042 13.8654 71.9429C14.0025 71.2816 14.2309 70.0503 14.4136 69.1154C14.5964 68.1804 14.6649 67.884 14.8248 67.2683C15.0532 66.2422 15.3273 65.2161 15.6243 64.1899C15.7613 63.6883 15.8755 63.1866 16.0126 62.685C16.4695 61.1572 16.9263 59.6522 17.4517 58.1244L5.32233 92.8303C4.81979 94.3353 4.34009 95.8403 3.88324 97.3908C3.74618 97.8925 3.63197 98.3942 3.49492 98.8958C3.19797 99.922 2.92384 100.948 2.69542 101.997C2.55836 102.613 2.42131 103.206 2.3071 103.821C2.10152 104.779 1.89593 105.714 1.73604 106.672C1.57614 107.629 1.50761 107.971 1.41624 108.633C1.32487 109.294 1.11931 110.48 1.00509 111.415C0.890881 112.349 0.845182 112.76 0.776655 113.444C0.708127 114.128 0.593913 115.314 0.525386 116.249L0.388336 118.301C0.388336 119.236 0.388336 120.194 0.388336 121.129C0.388336 122.064 0.388336 122.497 0.388336 123.181C0.388336 123.865 0.388336 125.165 0.388336 126.145C0.388336 127.126 0.388336 127.445 0.388336 128.106C0.388336 129.178 0.388328 130.387 0.59391 131.344C0.59391 131.937 0.59391 132.507 0.59391 133.077C0.730965 134.537 0.913708 135.996 1.09645 137.455C1.09645 137.661 1.09645 137.866 1.09645 138.094C1.32487 139.758 1.59898 141.446 1.91878 143.133C1.91878 143.658 2.12436 144.182 2.23857 144.707C2.467 145.87 2.69544 146.987 2.96955 148.218C3.12945 148.88 3.31216 149.518 3.47205 150.179C3.72332 151.228 3.99745 152.277 4.27156 153.326L4.88831 155.447C5.18527 156.473 5.50507 157.476 5.82486 158.48C6.14466 159.483 6.30454 159.939 6.55581 160.76C6.80707 161.581 7.2411 162.767 7.60658 163.77L8.42891 166.05C8.81723 167.053 9.22839 168.057 9.63956 169.06C10.0507 170.063 10.2334 170.519 10.5532 171.34C10.873 172.161 11.467 173.415 11.9238 174.442L12.8832 176.539C13.4086 177.657 13.9796 178.82 14.5279 179.891L15.4644 181.761C16.1953 183.16 16.9567 184.551 17.7486 185.934L18.2969 186.983C19.2791 188.716 20.2841 190.449 21.3577 192.182L22.2715 193.664L24.5557 197.404L25.8806 199.365C26.6115 200.437 27.3425 201.531 28.1648 202.603C28.6445 203.31 29.1699 204.017 29.6724 204.747C30.1749 205.476 31.1572 206.776 31.9567 207.802L33.6242 210.082C34.4008 211.109 35.1775 212.112 35.9084 213.115L37.6673 215.395L40.1572 218.405C40.7739 219.135 41.3678 219.865 42.0074 220.572C42.647 221.279 43.7663 222.624 44.68 223.627L46.553 225.725L49.5454 228.94C50.1393 229.579 50.7104 230.194 51.3271 230.81C52.5606 232.11 53.817 233.387 55.0961 234.664L56.3297 235.895C58.02 237.583 59.7789 239.247 61.5606 240.912C61.9946 241.345 62.4743 241.755 62.9311 242.166C64.1189 243.283 65.2153 244.446 66.563 245.495L67.0656 245.951L68.5504 247.251L72.5478 250.694L74.4437 252.313C75.7686 253.408 77.0935 254.593 78.464 255.597L80.2458 257.033C82.1874 258.584 84.1518 260.135 86.162 261.594C88.8117 263.623 91.53 265.607 94.2482 267.591L97.035 269.507C98.7025 270.692 100.393 271.901 102.106 273.064L102.563 273.36C103.728 274.158 104.847 274.911 106.126 275.641L111.083 278.878L114.875 281.159C116.52 282.185 118.141 283.188 119.786 284.169C121.431 285.149 122.413 285.719 123.738 286.449C125.063 287.179 127.004 288.364 128.649 289.277C130.294 290.189 131.367 290.804 132.738 291.557L136.393 293.563L137.649 294.225L141.852 296.391C143.497 297.258 145.141 298.101 146.809 298.922L151.08 301.02L156.06 303.3L160.446 305.307L165.448 307.587L169.88 309.48L172.758 310.734L174.7 311.509L180.479 313.79L184.91 315.523C186.875 316.275 188.862 317.005 190.826 317.803C192.288 318.35 193.727 318.875 195.189 319.376C197.245 320.106 199.301 320.813 201.38 321.497L205.514 322.888C207.798 323.618 210.083 324.302 212.367 325.009L215.496 325.989L216.022 326.126L218.077 326.719C220.362 327.403 222.806 328.087 225.159 328.725L228.174 329.524C230.321 330.094 232.445 330.641 234.593 331.165L237.471 331.895C240.235 332.556 242.999 333.195 245.763 333.788L246.585 333.97C249.623 334.631 252.638 335.247 255.722 335.84L258.44 336.342C260.603 336.752 262.773 337.14 264.95 337.505L267.988 338.006L274.681 339.032L277.148 339.397H277.993L279.958 339.648C283.11 340.058 286.239 340.423 289.392 340.765L293.069 341.13C296.13 341.427 299.168 341.677 302.206 341.905L305.039 342.111C308.922 342.369 312.782 342.552 316.62 342.658H319.178C322.216 342.658 325.232 342.658 328.315 342.658H331.879C334.803 342.658 337.726 342.521 340.627 342.407L343.323 342.293C347.046 342.088 350.724 341.837 354.356 341.518L356.777 341.267C359.632 340.971 362.488 340.651 365.32 340.286L368.678 339.83C371.419 339.42 374.137 338.987 376.856 338.508L378.729 338.211L379.414 338.075C382.589 337.482 385.741 336.82 388.848 336.114C391.955 335.407 394.81 334.654 397.757 333.833L399.47 333.354C402.302 332.534 405.089 331.69 407.83 330.778L409.338 330.253C411.987 329.364 414.592 328.429 417.15 327.426L417.858 327.152C420.531 326.103 423.157 324.872 425.739 323.8C426.013 323.663 426.333 323.549 426.63 323.435L427.452 323.025C429.736 321.953 432.02 320.881 434.168 319.718L446.023 285.332Z" fill="url(#paint2_radial_75_2283)"/>
<path d="M71.5428 0L131.733 45.8564C71.5427 77.3699 79.6518 146.189 149.824 199.753C209.215 244.971 293.915 264.672 355.064 250.58C365.752 248.19 376.091 244.451 385.833 239.452L446.023 285.332C431.68 292.718 416.45 298.243 400.703 301.773C310.59 322.523 185.687 293.518 98.2228 226.842C-5.20806 147.99 -17.1318 46.3809 71.5428 0Z" fill="url(#paint3_linear_75_2283)"/>
<path d="M71.5428 0L131.733 45.8564C120.601 51.417 110.907 59.4708 103.408 69.389L41.1851 21.503C50.2178 12.9177 60.442 5.67574 71.5428 0ZM446.023 285.332L385.833 239.452C376.092 244.451 365.752 248.19 355.064 250.58C350.907 251.538 346.635 252.313 342.295 252.974L404.495 300.86C418.907 297.35 432.848 292.137 446.023 285.332Z" fill="url(#paint4_linear_75_2283)"/>
<path style="mix-blend-mode:overlay" opacity="0.8" d="M385.833 239.452C376.091 244.451 365.752 248.19 355.064 250.58C293.915 264.672 209.169 244.971 149.824 199.753C79.6518 146.28 71.5427 77.3699 131.733 45.8564L71.5428 0C-17.1318 46.4721 -5.20806 147.99 98.2228 226.774C185.687 293.449 310.658 322.546 400.703 301.704C416.447 298.196 431.677 292.694 446.023 285.332L385.833 239.452ZM400.338 300.131C380.096 304.652 359.405 306.863 338.663 306.721C256.636 306.721 164.832 275.595 99.1136 225.52C40.9795 181.237 10.0279 128.54 13.9796 80.9728C16.7893 47.6807 36.6166 20.3401 71.3143 1.8926L128.718 45.6285C105.304 58.5805 91.9183 77.5524 89.8853 100.56C87.0757 133.784 108.502 170.405 148.682 201.007C193.727 235.325 256.636 256.669 312.874 256.669C327.133 256.751 341.356 255.222 355.27 252.108C365.749 249.766 375.899 246.144 385.49 241.322L442.871 285.035C429.35 291.75 415.07 296.818 400.338 300.131Z" fill="url(#paint5_linear_75_2283)"/>
<path d="M392.617 335.384C394.239 334.973 395.884 334.586 397.483 334.153L399.196 333.674C402.028 332.853 404.815 332.009 407.556 331.097L409.064 330.572C411.713 329.683 414.317 328.748 416.876 327.745L417.584 327.471C420.257 326.422 422.883 325.191 425.465 324.119C425.739 323.982 426.059 323.868 426.355 323.754L427.178 323.344C429.462 322.272 431.746 321.201 433.893 320.038L446.023 285.332C443.739 286.472 441.569 287.612 439.307 288.615L437.571 289.413C434.99 290.576 432.386 291.694 429.713 292.765L429.005 293.016C426.447 294.02 423.843 294.977 421.193 295.867L419.685 296.391C416.944 297.303 414.158 298.147 411.325 298.945L409.612 299.424C407.944 299.88 406.231 300.29 404.541 300.724L392.617 335.384Z" fill="url(#paint6_linear_75_2283)"/>
<defs>
<linearGradient id="paint0_linear_75_2283" x1="36.3425" y1="102.499" x2="132.28" y2="76.0761" gradientUnits="userSpaceOnUse">
<stop offset="0.31" stop-color="#4D3B79"/>
<stop offset="0.42" stop-color="#503D7C"/>
<stop offset="0.52" stop-color="#574387"/>
<stop offset="0.61" stop-color="#644D99"/>
<stop offset="0.7" stop-color="#775BB3"/>
<stop offset="0.78" stop-color="#8E6DD3"/>
<stop offset="0.85" stop-color="#A57EF3"/>
<stop offset="0.92" stop-color="#B494F5"/>
<stop offset="1" stop-color="#C3AAF7"/>
</linearGradient>
<linearGradient id="paint1_linear_75_2283" x1="89.8853" y1="66.379" x2="133.893" y2="77.9776" gradientUnits="userSpaceOnUse">
<stop stop-color="#C47445"/>
<stop offset="0.21" stop-color="#CC7E49"/>
<stop offset="0.39" stop-color="#D68A4E"/>
<stop offset="0.51" stop-color="#DB985B"/>
<stop offset="0.76" stop-color="#E9BC7F"/>
<stop offset="1" stop-color="#FAE6A9"/>
</linearGradient>
<radialGradient id="paint2_radial_75_2283" cx="0" cy="0" r="1" gradientUnits="userSpaceOnUse" gradientTransform="translate(81.5935 328.657) scale(372.196 371.549)">
<stop offset="0.31" stop-color="#4D3B8B"/>
<stop offset="0.43" stop-color="#503D8E"/>
<stop offset="0.53" stop-color="#594499"/>
<stop offset="0.63" stop-color="#6850AB"/>
<stop offset="0.72" stop-color="#7E60C5"/>
<stop offset="0.82" stop-color="#9975E5"/>
<stop offset="0.85" stop-color="#A57EF3"/>
<stop offset="0.92" stop-color="#B494F5"/>
<stop offset="1" stop-color="#C3AAF7"/>
</radialGradient>
<linearGradient id="paint3_linear_75_2283" x1="279.41" y1="108.382" x2="160.925" y2="255.866" gradientUnits="userSpaceOnUse">
<stop offset="0.14" stop-color="#C7A2FF"/>
<stop offset="1" stop-color="#9B6FF1"/>
</linearGradient>
<linearGradient id="paint4_linear_75_2283" x1="180.456" y1="239.065" x2="260.635" y2="129.957" gradientUnits="userSpaceOnUse">
<stop stop-color="#C47445"/>
<stop offset="0.21" stop-color="#CC7E49"/>
<stop offset="0.39" stop-color="#D68A4E"/>
<stop offset="0.51" stop-color="#DB985B"/>
<stop offset="0.76" stop-color="#E9BC7F"/>
<stop offset="1" stop-color="#FAE6A9"/>
</linearGradient>
<linearGradient id="paint5_linear_75_2283" x1="295.514" y1="88.4065" x2="177.029" y2="235.891" gradientUnits="userSpaceOnUse">
<stop offset="0.04" stop-color="#EBE2FD"/>
<stop offset="0.12" stop-color="#E9DEFD" stop-opacity="0.97"/>
<stop offset="0.25" stop-color="#E2D5FC" stop-opacity="0.88"/>
<stop offset="0.4" stop-color="#D7C5FA" stop-opacity="0.75"/>
<stop offset="0.58" stop-color="#C7AFF8" stop-opacity="0.55"/>
<stop offset="0.78" stop-color="#B492F5" stop-opacity="0.31"/>
<stop offset="0.99" stop-color="#9C70F1" stop-opacity="0.01"/>
<stop offset="1" stop-color="#9B6FF1" stop-opacity="0"/>
</linearGradient>
<linearGradient id="paint6_linear_75_2283" x1="243.478" y1="277.373" x2="449.539" y2="316.154" gradientUnits="userSpaceOnUse">
<stop stop-color="#691D00"/>
<stop offset="0.16" stop-color="#6C2003"/>
<stop offset="0.3" stop-color="#732B0C"/>
<stop offset="0.44" stop-color="#803D1B"/>
<stop offset="0.57" stop-color="#935731"/>
<stop offset="0.7" stop-color="#AA784C"/>
<stop offset="0.82" stop-color="#C7A06E"/>
<stop offset="0.95" stop-color="#E9CF95"/>
<stop offset="1" stop-color="#FAE6A9"/>
</linearGradient>
</defs>
</svg>
